<?xml version="1.0" encoding="iso-8859-1"?>
<!-- Generator: Adobe Illustrator 19.0.0, SVG Export Plug-In . SVG Version: 6.00 Build 0)  -->
<svg version="1.1" id="Layer_1" xmlns="http://www.w3.org/2000/svg" xmlns:xlink="http://www.w3.org/1999/xlink" x="0px" y="0px"
	 viewBox="0 0 458.321 458.321" style="enable-background:new 0 0 458.321 458.321;" xml:space="preserve">
<g>
	<g>
		<g>
			<path d="M439.831,22.011L229.16,72.403L18.49,22.011C9.036,19.756,0,26.937,0,36.6v333.899c0,6.94,4.761,12.974,11.511,14.589
				l214.16,51.227c2.194,0.52,4.554,0.579,6.979,0l214.161-51.227c6.75-1.615,11.51-7.648,11.51-14.589V36.6
				C458.32,26.919,449.269,19.762,439.831,22.011z M214.16,402.716L30,358.665V55.611l184.16,44.051V402.716z M428.32,358.665
				l-184.16,44.051V99.662l184.16-44.051V358.665z"/>
			<path d="M60.645,170.595L179,198.905c8.085,1.931,16.157-3.067,18.078-11.1c1.927-8.056-3.042-16.15-11.099-18.078
				l-118.355-28.31c-8.06-1.924-16.151,3.043-18.078,11.1S52.588,168.667,60.645,170.595z"/>
			<path d="M60.645,231.939L179,260.25c8.085,1.931,16.157-3.067,18.078-11.1c1.927-8.057-3.042-16.15-11.099-18.078L67.624,202.761
				c-8.06-1.927-16.151,3.043-18.078,11.1S52.588,230.011,60.645,231.939z"/>
			<path d="M60.644,293.285L179,321.594c8.08,1.93,16.155-3.062,18.078-11.1c1.927-8.056-3.042-16.15-11.099-18.077l-118.356-28.31
				c-8.06-1.925-16.15,3.043-18.078,11.1C47.617,283.264,52.587,291.357,60.644,293.285z"/>
			<path d="M279.16,198.905l118.356-28.311c8.057-1.928,13.026-10.021,11.099-18.078c-1.927-8.058-10.019-13.023-18.078-11.1
				L272.18,169.727c-8.057,1.928-13.026,10.021-11.099,18.078C263.006,195.853,271.09,200.833,279.16,198.905z"/>
			<path d="M279.16,260.25l118.356-28.311c8.057-1.928,13.026-10.021,11.099-18.078c-1.927-8.058-10.019-13.022-18.078-11.1
				L272.18,231.072c-8.057,1.928-13.026,10.021-11.099,18.078C263.006,257.197,271.09,262.178,279.16,260.25z"/>
			<path d="M279.159,321.594l118.356-28.31c8.057-1.928,13.026-10.021,11.099-18.078c-1.927-8.058-10.021-13.023-18.078-11.1
				l-118.356,28.31c-8.057,1.928-13.026,10.021-11.099,18.078C263.006,318.542,271.089,323.523,279.159,321.594z"/>
		</g>
	</g>
</g>
<g>
</g>
<g>
</g>
<g>
</g>
<g>
</g>
<g>
</g>
<g>
</g>
<g>
</g>
<g>
</g>
<g>
</g>
<g>
</g>
<g>
</g>
<g>
</g>
<g>
</g>
<g>
</g>
<g>
</g>
</svg>
